REM DIRINDEX 1\2\4,1\2\5,1\2\6,1\3\7,1\3\8
REM DIRNAME folder01,folder02,folder03,folder04,folder05,folder06,folder07,folder08
TITLE ""
FILE "032_Lesson 27_Output_Stage.mp3" MP3
  TRACK 01 AUDIO
    TITLE "0:"
    INDEX 01 00:00:00
  TRACK 02 AUDIO
    TITLE "6:cjc128_1946"
    INDEX 01 00:00:25
  TRACK 03 AUDIO
    TITLE "0:"
    INDEX 01 00:03:49
  TRACK 04 AUDIO
    TITLE "6:cjc128_1947"
    INDEX 01 00:04:07
  TRACK 05 AUDIO
    TITLE "0:"
    INDEX 01 00:06:10
  TRACK 06 AUDIO
    TITLE "4:cjc128_1948"
    INDEX 01 00:06:63
  TRACK 07 AUDIO
    TITLE "0:"
    INDEX 01 00:10:57
  TRACK 08 AUDIO
    TITLE "5:cjc128_1949"
    INDEX 01 00:14:56
  TRACK 09 AUDIO
    TITLE "0:"
    INDEX 01 00:18:01
  TRACK 10 AUDIO
    TITLE "6:cjc128_1950"
    INDEX 01 00:18:64
  TRACK 11 AUDIO
    TITLE "0:"
    INDEX 01 00:20:36
  TRACK 12 AUDIO
    TITLE "4:cjc128_1951"
    INDEX 01 00:21:19
  TRACK 13 AUDIO
    TITLE "0:"
    INDEX 01 00:24:37
  TRACK 14 AUDIO
    TITLE "5:cjc128_1952"
    INDEX 01 00:28:37
  TRACK 15 AUDIO
    TITLE "0:"
    INDEX 01 00:31:65
  TRACK 16 AUDIO
    TITLE "6:cjc128_1953"
    INDEX 01 00:32:47
  TRACK 17 AUDIO
    TITLE "0:"
    INDEX 01 00:34:45
  TRACK 18 AUDIO
    TITLE "4:cjc128_1954"
    INDEX 01 00:35:27
  TRACK 19 AUDIO
    TITLE "0:"
    INDEX 01 00:38:53
  TRACK 20 AUDIO
    TITLE "5:cjc128_1955"
    INDEX 01 00:43:03
  TRACK 21 AUDIO
    TITLE "0:"
    INDEX 01 00:46:47
  TRACK 22 AUDIO
    TITLE "6:cjc128_1956"
    INDEX 01 00:47:25
  TRACK 23 AUDIO
    TITLE "0:"
    INDEX 01 00:49:18
  TRACK 24 AUDIO
    TITLE "4:cjc128_1957"
    INDEX 01 00:50:01
  TRACK 25 AUDIO
    TITLE "0:"
    INDEX 01 00:52:59
  TRACK 26 AUDIO
    TITLE "5:cjc128_1958"
    INDEX 01 00:55:36
  TRACK 27 AUDIO
    TITLE "0:"
    INDEX 01 00:57:52
  TRACK 28 AUDIO
    TITLE "6:cjc128_1959"
    INDEX 01 00:58:32
  TRACK 29 AUDIO
    TITLE "0:"
    INDEX 01 01:00:31
  TRACK 30 AUDIO
    TITLE "4:cjc128_1960"
    INDEX 01 01:01:13
  TRACK 31 AUDIO
    TITLE "0:"
    INDEX 01 01:05:52
  TRACK 32 AUDIO
    TITLE "5:cjc128_1961"
    INDEX 01 01:10:20
  TRACK 33 AUDIO
    TITLE "0:"
    INDEX 01 01:13:63
  TRACK 34 AUDIO
    TITLE "6:cjc128_1962"
    INDEX 01 01:14:55
  TRACK 35 AUDIO
    TITLE "0:"
    INDEX 01 01:16:52
  TRACK 36 AUDIO
    TITLE "4:cjc128_1963"
    INDEX 01 01:17:32
  TRACK 37 AUDIO
    TITLE "0:"
    INDEX 01 01:21:14
  TRACK 38 AUDIO
    TITLE "5:cjc128_1964"
    INDEX 01 01:24:61
  TRACK 39 AUDIO
    TITLE "0:"
    INDEX 01 01:27:71
  TRACK 40 AUDIO
    TITLE "6:cjc128_1965"
    INDEX 01 01:28:51
  TRACK 41 AUDIO
    TITLE "0:"
    INDEX 01 01:30:73
  TRACK 42 AUDIO
    TITLE "4:cjc128_1966"
    INDEX 01 01:31:53
  TRACK 43 AUDIO
    TITLE "0:"
    INDEX 01 01:35:53
  TRACK 44 AUDIO
    TITLE "5:cjc128_1967"
    INDEX 01 01:40:11
  TRACK 45 AUDIO
    TITLE "0:"
    INDEX 01 01:43:64
  TRACK 46 AUDIO
    TITLE "6:cjc128_1968"
    INDEX 01 01:44:52
  TRACK 47 AUDIO
    TITLE "0:"
    INDEX 01 01:46:53
  TRACK 48 AUDIO
    TITLE "4:cjc128_1969"
    INDEX 01 01:47:44
  TRACK 49 AUDIO
    TITLE "0:"
    INDEX 01 01:50:70
  TRACK 50 AUDIO
    TITLE "5:cjc128_1970"
    INDEX 01 01:54:48
  TRACK 51 AUDIO
    TITLE "0:"
    INDEX 01 01:57:66
  TRACK 52 AUDIO
    TITLE "6:cjc128_1971"
    INDEX 01 01:58:40
  TRACK 53 AUDIO
    TITLE "0:"
    INDEX 01 02:00:41
  TRACK 54 AUDIO
    TITLE "4:cjc128_1972"
    INDEX 01 02:01:11
  TRACK 55 AUDIO
    TITLE "0:"
    INDEX 01 02:04:68
  TRACK 56 AUDIO
    TITLE "5:cjc128_1973"
    INDEX 01 02:08:33
  TRACK 57 AUDIO
    TITLE "0:"
    INDEX 01 02:11:33
  TRACK 58 AUDIO
    TITLE "6:cjc128_1974"
    INDEX 01 02:12:13
  TRACK 59 AUDIO
    TITLE "0:"
    INDEX 01 02:14:06
  TRACK 60 AUDIO
    TITLE "4:cjc128_1975"
    INDEX 01 02:14:59
  TRACK 61 AUDIO
    TITLE "0:"
    INDEX 01 02:16:64
  TRACK 62 AUDIO
    TITLE "5:cjc128_1976"
    INDEX 01 02:19:37
  TRACK 63 AUDIO
    TITLE "0:"
    INDEX 01 02:21:39
  TRACK 64 AUDIO
    TITLE "6:cjc128_1977"
    INDEX 01 02:22:11
  TRACK 65 AUDIO
    TITLE "0:"
    INDEX 01 02:24:14
  TRACK 66 AUDIO
    TITLE "4:cjc128_1978"
    INDEX 01 02:24:63
  TRACK 67 AUDIO
    TITLE "0:"
    INDEX 01 02:27:73
  TRACK 68 AUDIO
    TITLE "5:cjc128_1979"
    INDEX 01 02:31:67
  TRACK 69 AUDIO
    TITLE "0:"
    INDEX 01 02:35:18
  TRACK 70 AUDIO
    TITLE "6:cjc128_1980"
    INDEX 01 02:35:73
  TRACK 71 AUDIO
    TITLE "0:"
    INDEX 01 02:37:48
  TRACK 72 AUDIO
    TITLE "4:cjc128_1981"
    INDEX 01 02:38:38
  TRACK 73 AUDIO
    TITLE "0:"
    INDEX 01 02:42:28
  TRACK 74 AUDIO
    TITLE "5:cjc128_1982"
    INDEX 01 02:46:47
  TRACK 75 AUDIO
    TITLE "0:"
    INDEX 01 02:50:35
  TRACK 76 AUDIO
    TITLE "6:cjc128_1983"
    INDEX 01 02:51:07
  TRACK 77 AUDIO
    TITLE "0:"
    INDEX 01 02:53:04
  TRACK 78 AUDIO
    TITLE "4:cjc128_1984"
    INDEX 01 02:53:59
  TRACK 79 AUDIO
    TITLE "0:"
    INDEX 01 02:55:50
  TRACK 80 AUDIO
    TITLE "5:cjc128_1985"
    INDEX 01 02:58:01
  TRACK 81 AUDIO
    TITLE "0:"
    INDEX 01 02:59:50
  TRACK 82 AUDIO
    TITLE "6:cjc128_1986"
    INDEX 01 03:00:32
  TRACK 83 AUDIO
    TITLE "0:"
    INDEX 01 03:02:32
  TRACK 84 AUDIO
    TITLE "4:cjc128_1987"
    INDEX 01 03:03:06
  TRACK 85 AUDIO
    TITLE "0:"
    INDEX 01 03:05:46
  TRACK 86 AUDIO
    TITLE "5:cjc128_1988"
    INDEX 01 03:08:59
  TRACK 87 AUDIO
    TITLE "0:"
    INDEX 01 03:11:18
  TRACK 88 AUDIO
    TITLE "6:cjc128_1989"
    INDEX 01 03:12:01
  TRACK 89 AUDIO
    TITLE "0:"
    INDEX 01 03:14:04
  TRACK 90 AUDIO
    TITLE "4:cjc128_1990"
    INDEX 01 03:14:59
  TRACK 91 AUDIO
    TITLE "0:"
    INDEX 01 03:18:04
  TRACK 92 AUDIO
    TITLE "5:cjc128_1991"
    INDEX 01 03:21:57
  TRACK 93 AUDIO
    TITLE "0:"
    INDEX 01 03:24:69
  TRACK 94 AUDIO
    TITLE "6:cjc128_1992"
    INDEX 01 03:25:45
  TRACK 95 AUDIO
    TITLE "0:"
    INDEX 01 03:27:46
  TRACK 96 AUDIO
    TITLE "4:cjc128_1993"
    INDEX 01 03:28:28
  TRACK 97 AUDIO
    TITLE "0:"
    INDEX 01 03:32:14
  TRACK 98 AUDIO
    TITLE "5:cjc128_1994"
    INDEX 01 03:36:08
  TRACK 99 AUDIO
    TITLE "0:"
    INDEX 01 03:39:28
  TRACK 100 AUDIO
    TITLE "6:cjc128_1995"
    INDEX 01 03:40:04
  TRACK 101 AUDIO
    TITLE "0:"
    INDEX 01 03:42:14
  TRACK 102 AUDIO
    TITLE "4:cjc128_1996"
    INDEX 01 03:43:08
  TRACK 103 AUDIO
    TITLE "0:"
    INDEX 01 03:47:37
  TRACK 104 AUDIO
    TITLE "5:cjc128_1997"
    INDEX 01 03:52:62
  TRACK 105 AUDIO
    TITLE "0:"
    INDEX 01 03:57:28
  TRACK 106 AUDIO
    TITLE "6:cjc128_1998"
    INDEX 01 03:58:17
  TRACK 107 AUDIO
    TITLE "0:"
    INDEX 01 04:00:24
  TRACK 108 AUDIO
    TITLE "4:cjc128_1999"
    INDEX 01 04:01:20
  TRACK 109 AUDIO
    TITLE "0:"
    INDEX 01 04:05:13
  TRACK 110 AUDIO
    TITLE "5:cjc128_2000"
    INDEX 01 04:09:39
  TRACK 111 AUDIO
    TITLE "0:"
    INDEX 01 04:13:34
  TRACK 112 AUDIO
    TITLE "6:cjc128_2001"
    INDEX 01 04:14:05
  TRACK 113 AUDIO
    TITLE "0:"
    INDEX 01 04:16:09
  TRACK 114 AUDIO
    TITLE "4:cjc128_2002"
    INDEX 01 04:16:62
  TRACK 115 AUDIO
    TITLE "0:"
    INDEX 01 04:21:20
  TRACK 116 AUDIO
    TITLE "5:cjc128_2003"
    INDEX 01 04:26:04
  TRACK 117 AUDIO
    TITLE "0:"
    INDEX 01 04:29:67
  TRACK 118 AUDIO
    TITLE "6:cjc128_2004"
    INDEX 01 04:30:60
  TRACK 119 AUDIO
    TITLE "0:"
    INDEX 01 04:32:49
  TRACK 120 AUDIO
    TITLE "4:cjc128_2005"
    INDEX 01 04:33:35
  TRACK 121 AUDIO
    TITLE "0:"
    INDEX 01 04:36:53
  TRACK 122 AUDIO
    TITLE "5:cjc128_2006"
    INDEX 01 04:40:65
  TRACK 123 AUDIO
    TITLE "0:"
    INDEX 01 04:44:27
  TRACK 124 AUDIO
    TITLE "6:cjc128_2007"
    INDEX 01 04:45:07
  TRACK 125 AUDIO
    TITLE "0:"
    INDEX 01 04:47:08
  TRACK 126 AUDIO
    TITLE "4:cjc128_2008"
    INDEX 01 04:47:59
  TRACK 127 AUDIO
    TITLE "0:"
    INDEX 01 04:51:23
  TRACK 128 AUDIO
    TITLE "5:cjc128_2009"
    INDEX 01 04:55:45
  TRACK 129 AUDIO
    TITLE "0:"
    INDEX 01 04:59:25
  TRACK 130 AUDIO
    TITLE "6:cjc128_2010"
    INDEX 01 05:00:16
  TRACK 131 AUDIO
    TITLE "0:"
    INDEX 01 05:02:00
  TRACK 132 AUDIO
    TITLE "4:cjc128_2011"
    INDEX 01 05:02:53
  TRACK 133 AUDIO
    TITLE "0:"
    INDEX 01 05:07:20
  TRACK 134 AUDIO
    TITLE "5:cjc128_2012"
    INDEX 01 05:13:21
  TRACK 135 AUDIO
    TITLE "0:"
    INDEX 01 05:18:16
